<?xml version="1.0" encoding="utf-8"?>
<!-- Generator: Adobe Illustrator 19.0.1, SVG Export Plug-In . SVG Version: 6.00 Build 0)  -->
<svg version="1.1" id="Слой_1" xmlns="http://www.w3.org/2000/svg" xmlns:xlink="http://www.w3.org/1999/xlink" x="0px" y="0px"
	 viewBox="0 0 87.6 26.7" style="enable-background:new 0 0 87.6 26.7;" xml:space="preserve">
<style type="text/css">
	.st0{fill:#C37602;}
	.st1{fill:#D38F00;}
	.st2{opacity:0.57;fill:#C37602;}
	.st3{fill:#403C31;stroke:#1D1D1B;stroke-miterlimit:10;}
	.st4{opacity:0.14;fill:#F6F6F6;}
	.st5{fill:#0787ba;}
	.st6{opacity:0.21;fill:#0A0A0A;}
	.st7{fill:#403C31;stroke:#171310;stroke-miterlimit:10;}
	.st8{fill:#171310;stroke:#171310;stroke-miterlimit:10;}
	.st9{opacity:0.38;fill:#766C62;}
	.st10{fill:none;stroke:#171310;stroke-width:2.6792;stroke-miterlimit:10;}
	.st11{fill:#1A7259;stroke:#171310;stroke-width:5;stroke-miterlimit:10;}
	.st12{fill:#16634B;stroke:#171310;stroke-width:3.2928;stroke-miterlimit:10;}
	.st13{fill:#403C31;}
	.st14{opacity:0.5;fill:#766C62;}
	.st15{fill:none;stroke:#171310;stroke-width:10.7167;stroke-miterlimit:10;}
	.st16{fill:#766C62;stroke:#171310;stroke-width:8.0375;stroke-miterlimit:10;}
	.st17{fill:#F0D5A0;}
	.st18{fill:#1D1D1B;}
	.st19{fill:#FEEFD0;}
	.st20{fill:#470003;stroke:#171310;stroke-miterlimit:10;}
	.st21{fill:#E30613;stroke:#171310;stroke-miterlimit:10;}
	.st22{fill:#766C62;stroke:#1D1D1B;stroke-miterlimit:10;}
	.st23{fill:#FFFFFF;stroke:#403C31;stroke-width:2.6873;stroke-miterlimit:10;}
	.st24{fill:#302C24;}
	.st25{fill:#353128;stroke:#1D1D1B;stroke-miterlimit:10;}
	.st26{fill:#6D6743;}
	.st27{fill:#808430;}
	.st28{fill:#FFFFFF;}
	.st29{fill:#808430;stroke:#171310;stroke-miterlimit:10;}
	.st30{fill:#6D6743;stroke:#171310;stroke-miterlimit:10;}
	.st31{fill:#403C31;stroke:#171310;stroke-linecap:round;stroke-linejoin:round;stroke-miterlimit:10;}
	.st32{fill:#F0D5A0;stroke:#1D1D1B;stroke-width:4;stroke-miterlimit:10;}
	.st33{fill:none;stroke:#0A0A0A;stroke-width:2.6792;stroke-miterlimit:10;}
	.st34{fill:none;stroke:#0A0A0A;stroke-width:3.4594;stroke-miterlimit:10;}
	.st35{fill:#0A0A0A;}
	.st36{fill:#470003;stroke:#171310;stroke-width:2;stroke-miterlimit:10;}
	.st37{fill:#FB0101;stroke:#171310;stroke-width:1.2322;stroke-miterlimit:10;}
	.st38{fill:#F0D5A0;stroke:#1D1D1B;stroke-width:2;stroke-miterlimit:10;}
	.st39{fill:#353128;stroke:#1D1D1B;stroke-width:0.9703;stroke-miterlimit:10;}
	.st40{fill:#D6D3CA;stroke:#1D1D1B;stroke-miterlimit:10;}
	.st41{fill:#171310;stroke:#171310;stroke-linecap:round;stroke-linejoin:round;stroke-miterlimit:10;}
	.st42{fill:none;stroke:#171310;stroke-width:2.6873;stroke-miterlimit:10;}
	.st43{opacity:0.42;fill:#E0A736;}
	.st44{fill:#E0A736;}
	.st45{fill:#1A7259;}
	.st46{fill:#470003;}
	.st47{fill:#3A0206;}
	.st48{opacity:0.5;fill:#6D6743;}
	.st49{fill:#1A7259;stroke:#171310;stroke-miterlimit:10;}
	.st50{opacity:0.57;fill:#115B44;}
	.st51{fill:#31876D;}
	.st52{opacity:0.4;fill:#0CA374;}
	.st53{fill:#77772B;}
	.st54{fill:#8C8C3B;}
	.st55{fill:#F6F6F6;stroke:#171310;stroke-width:2;stroke-miterlimit:10;}
	.st56{fill:#403C31;stroke:#171310;stroke-width:1.2123;stroke-miterlimit:10;}
	.st57{opacity:5.000000e-002;fill:#DADADA;}
	.st58{fill:none;stroke:#171310;stroke-miterlimit:10;}
	.st59{fill:#403C31;stroke:#1D1D1B;stroke-width:0.693;stroke-miterlimit:10;}
	.st60{fill:#403C31;stroke:#171310;stroke-width:0.693;stroke-miterlimit:10;}
	.st61{fill:#171310;stroke:#171310;stroke-width:0.693;stroke-miterlimit:10;}
	.st62{fill:#F0D5A0;stroke:#1D1D1B;stroke-width:2.7718;stroke-miterlimit:10;}
	.st63{fill:none;stroke:#0A0A0A;stroke-width:1.8565;stroke-miterlimit:10;}
	.st64{fill:none;stroke:#0A0A0A;stroke-width:2.3972;stroke-miterlimit:10;}
	.st65{fill:#353128;stroke:#1D1D1B;stroke-width:0.6724;stroke-miterlimit:10;}
	.st66{fill:#353128;stroke:#1D1D1B;stroke-width:0.693;stroke-miterlimit:10;}
	.st67{fill:#D6D3CA;stroke:#1D1D1B;stroke-width:0.693;stroke-miterlimit:10;}
	.st68{fill:#FFFFFF;stroke:#403C31;stroke-width:1.8622;stroke-miterlimit:10;}
	.st69{fill:#766C62;stroke:#1D1D1B;stroke-width:0.693;stroke-miterlimit:10;}
	.st70{fill:#F0D5A0;stroke:#1D1D1B;stroke-width:1.3859;stroke-miterlimit:10;}
	.st71{opacity:0.48;fill:#171310;}
	.st72{opacity:0.63;fill:#AFA195;}
	.st73{opacity:0.52;fill:#AFA195;}
	.st74{fill:#2D0104;}
	.st75{fill:#F9B233;}
	.st76{fill:#FA0100;}
	.st77{fill:#403C31;stroke:#171310;stroke-width:0.7946;stroke-miterlimit:10;}
	.st78{fill:#171310;stroke:#171310;stroke-width:0.7946;stroke-miterlimit:10;}
	.st79{fill:#230205;}
	.st80{fill:#D38F00;stroke:#171310;stroke-width:8.0375;stroke-miterlimit:10;}
	.st81{opacity:0.63;fill:#D38F00;}
	.st82{opacity:0.52;fill:#E0A734;}
	.st83{fill:#403C31;stroke:#171310;stroke-width:0.9169;stroke-miterlimit:10;}
	.st84{fill:#171310;stroke:#171310;stroke-width:0.9169;stroke-miterlimit:10;}
	.st85{fill:#EDEDED;stroke:#171310;stroke-linecap:round;stroke-linejoin:round;stroke-miterlimit:10;}
	.st86{fill:#808430;stroke:#171310;stroke-linecap:round;stroke-linejoin:round;stroke-miterlimit:10;}
	.st87{fill:#6D6743;stroke:#171310;stroke-linecap:round;stroke-linejoin:round;stroke-miterlimit:10;}
	.st88{fill:none;stroke:#020605;stroke-width:4.2533;stroke-miterlimit:10;}
	.st89{fill:#403C31;stroke:#1D1D1B;stroke-width:0.8699;stroke-miterlimit:10;}
	.st90{fill:#171310;stroke:#171310;stroke-width:0.8699;stroke-miterlimit:10;}
	.st91{fill:none;stroke:#171310;stroke-width:1.8539;stroke-miterlimit:10;}
	.st92{fill:#171310;stroke:#171310;stroke-width:0.6899;stroke-miterlimit:10;}
	.st93{fill:#403C31;stroke:#171310;stroke-width:0.6899;stroke-miterlimit:10;}
	.st94{fill:#F0D5A0;stroke:#1D1D1B;stroke-width:2.7594;stroke-miterlimit:10;}
	.st95{fill:#403C31;stroke:#1D1D1B;stroke-width:0.6899;stroke-miterlimit:10;}
	.st96{fill:#353128;stroke:#1D1D1B;stroke-width:0.6899;stroke-miterlimit:10;}
	.st97{fill:#D6D3CA;stroke:#1D1D1B;stroke-width:0.6899;stroke-miterlimit:10;}
	.st98{fill:#FFFFFF;stroke:#403C31;stroke-width:1.8539;stroke-miterlimit:10;}
	.st99{fill:#766C62;stroke:#1D1D1B;stroke-width:0.6899;stroke-miterlimit:10;}
	.st100{fill:#F0D5A0;stroke:#1D1D1B;stroke-width:1.3797;stroke-miterlimit:10;}
	.st101{fill:#E30613;stroke:#171310;stroke-width:0.6899;stroke-miterlimit:10;}
	.st102{fill:#1A7259;stroke:#171310;stroke-width:0.6899;stroke-miterlimit:10;}
	.st103{fill:#808430;stroke:#171310;stroke-width:0.6899;stroke-miterlimit:10;}
	.st104{fill:#F6F6F6;stroke:#171310;stroke-width:1.3797;stroke-miterlimit:10;}
	.st105{fill:#403C31;stroke:#171310;stroke-width:0.8363;stroke-miterlimit:10;}
	.st106{fill:none;stroke:#171310;stroke-width:1.8482;stroke-miterlimit:10;}
	.st107{fill:#1A7259;stroke:#171310;stroke-width:3.4493;stroke-miterlimit:10;}
	.st108{fill:#16634B;stroke:#171310;stroke-width:2.2715;stroke-miterlimit:10;}
	.st109{fill:#470003;stroke:#171310;stroke-width:1.3797;stroke-miterlimit:10;}
	.st110{fill:#FB0101;stroke:#171310;stroke-width:0.85;stroke-miterlimit:10;}
	.st111{fill:none;stroke:#171310;stroke-width:0.6899;stroke-miterlimit:10;}
	.st112{fill:#403C31;stroke:#1D1D1B;stroke-width:1.6243;stroke-miterlimit:10;}
	.st113{fill:none;stroke:#171310;stroke-width:17.407;stroke-miterlimit:10;}
	.st114{fill:#D38F00;stroke:#171310;stroke-width:13.0552;stroke-miterlimit:10;}
	.st115{fill:#470003;stroke:#171310;stroke-width:1.6243;stroke-miterlimit:10;}
	.st116{fill:#E30613;stroke:#171310;stroke-width:1.6243;stroke-miterlimit:10;}
	.st117{fill:#766C62;stroke:#1D1D1B;stroke-width:1.6243;stroke-miterlimit:10;}
	.st118{fill:#FFFFFF;stroke:#403C31;stroke-width:4.365;stroke-miterlimit:10;}
	.st119{fill:#353128;stroke:#1D1D1B;stroke-width:1.6243;stroke-miterlimit:10;}
	.st120{fill:#808430;stroke:#171310;stroke-width:1.6243;stroke-miterlimit:10;}
	.st121{fill:#6D6743;stroke:#171310;stroke-width:1.6243;stroke-miterlimit:10;}
	.st122{fill:#403C31;stroke:#171310;stroke-width:1.6243;stroke-miterlimit:10;}
	.st123{fill:#403C31;stroke:#171310;stroke-width:1.6243;stroke-linecap:round;stroke-linejoin:round;stroke-miterlimit:10;}
	.st124{fill:#171310;stroke:#171310;stroke-width:1.6243;stroke-linecap:round;stroke-linejoin:round;stroke-miterlimit:10;}
	.st125{fill:#171310;stroke:#171310;stroke-width:1.6243;stroke-miterlimit:10;}
	.st126{opacity:0.63;fill:#C37602;}
	.st127{fill:#403C31;stroke:#171310;stroke-width:0.5481;stroke-miterlimit:10;}
	.st128{fill:#171310;stroke:#171310;stroke-width:0.5481;stroke-miterlimit:10;}
	.st129{fill:#403C31;stroke:#171310;stroke-width:0.6325;stroke-miterlimit:10;}
	.st130{fill:#171310;stroke:#171310;stroke-width:0.6325;stroke-miterlimit:10;}
	.st131{fill:none;stroke:#020605;stroke-width:2.9342;stroke-miterlimit:10;}
	.st132{fill:#403C31;stroke:#1D1D1B;stroke-width:0.6001;stroke-miterlimit:10;}
	.st133{fill:#171310;stroke:#171310;stroke-width:0.6001;stroke-miterlimit:10;}
	.st134{fill:#EDEDED;stroke:#171310;stroke-width:0.6899;stroke-linecap:round;stroke-linejoin:round;stroke-miterlimit:10;}
	.st135{fill:#808430;stroke:#171310;stroke-width:0.6899;stroke-linecap:round;stroke-linejoin:round;stroke-miterlimit:10;}
	.st136{fill:#6D6743;stroke:#171310;stroke-width:0.6899;stroke-linecap:round;stroke-linejoin:round;stroke-miterlimit:10;}
</style>
<g id="k_2205_">
	<path class="st5" d="M0,26.7c0,0,0.2-0.4,0.6-1C1,25,1.5,24,2.3,22.8c0.4-0.6,0.9-1.2,1.4-1.9c0.5-0.7,1.1-1.4,1.7-2.2
		c0.6-0.8,1.4-1.6,2.1-2.4c0.8-0.8,1.6-1.6,2.5-2.5c0.9-0.8,1.9-1.7,2.9-2.5c1.1-0.8,2.1-1.7,3.3-2.5c0.6-0.4,1.2-0.8,1.8-1.2
		c0.6-0.4,1.3-0.7,1.9-1.1c0.7-0.4,1.3-0.8,2-1.1c0.7-0.3,1.4-0.7,2.1-1c1.4-0.7,2.9-1.2,4.4-1.8C30,2,31.6,1.7,33.2,1.3
		c1.6-0.3,3.2-0.6,4.9-0.9C39.7,0.3,41.3,0,43,0c3.4-0.1,6.7,0.2,9.9,0.7c0.8,0.2,1.6,0.3,2.4,0.5c0.8,0.1,1.6,0.4,2.3,0.6
		c1.6,0.4,3,1,4.5,1.5c0.7,0.2,1.4,0.6,2.1,0.9c0.7,0.3,1.4,0.6,2.1,0.9c1.3,0.7,2.7,1.3,3.8,2.1c1.2,0.7,2.4,1.4,3.5,2.3
		c0.5,0.4,1.1,0.8,1.6,1.2c0.5,0.4,1,0.8,1.5,1.2c0.5,0.4,0.9,0.8,1.4,1.2c0.4,0.4,0.8,0.8,1.3,1.2c0.4,0.4,0.8,0.8,1.2,1.1
		c0.4,0.4,0.7,0.8,1.1,1.1c0.7,0.8,1.3,1.4,1.9,2.1c0.5,0.7,1,1.3,1.5,1.9c0.9,1.1,1.5,2.1,1.9,2.7c0.4,0.6,0.7,1,0.7,1
		s-0.3-0.3-0.8-0.9c-0.5-0.6-1.2-1.4-2.2-2.5c-0.5-0.5-1-1.1-1.6-1.7c-0.6-0.6-1.3-1.2-2-1.9c-0.4-0.3-0.7-0.7-1.1-1
		c-0.4-0.3-0.8-0.7-1.3-1c-0.4-0.3-0.9-0.7-1.3-1.1c-0.5-0.3-0.9-0.7-1.4-1c-0.5-0.4-1-0.7-1.5-1.1c-0.5-0.3-1.1-0.7-1.6-1
		c-0.6-0.3-1.1-0.7-1.7-1c-0.6-0.3-1.2-0.6-1.8-1c-1.2-0.7-2.5-1.2-3.8-1.8c-1.3-0.5-2.7-1.1-4.1-1.6c-2.8-1-5.8-1.7-8.9-2.2
		c-3.1-0.5-6.3-0.8-9.4-0.6c-1.5,0-3.2,0.2-4.8,0.3c-1.5,0.2-3.1,0.5-4.6,0.8C33,4,32.2,4.2,31.5,4.4C30.7,4.6,30,4.7,29.2,5
		c-1.4,0.5-2.9,0.9-4.2,1.6c-0.7,0.3-1.4,0.6-2,0.9c-0.7,0.3-1.3,0.7-1.9,1c-0.6,0.3-1.3,0.6-1.9,1c-0.6,0.4-1.2,0.7-1.8,1.1
		c-2.3,1.4-4.4,3-6.3,4.5c-1.8,1.6-3.5,3-4.9,4.4c-0.7,0.7-1.3,1.4-1.9,2c-0.6,0.6-1.1,1.2-1.5,1.8C0.9,25.3,0,26.7,0,26.7z"/>
</g>
</svg>
