<?xml version="1.0" encoding="UTF-8"?>
<svg version="1.1" xmlns="http://www.w3.org/2000/svg" width="6660" height="4167">
<path d="M0 0 C390.39 0 780.78 0 1183 0 C1183 63.36 1183 126.72 1183 192 C1019.98 192 856.96 192 689 192 C689 584.7 689 977.4 689 1382 C680.65918027 1377.55156281 672.32133515 1373.10037109 663.99584961 1368.6237793 C652.75091737 1362.58147088 641.47678215 1356.60306081 630.13720703 1350.73950195 C625.66471475 1348.42674957 621.19648772 1346.10720078 616.74633789 1343.75170898 C605.09026799 1337.58358813 593.36010664 1331.58020742 581.5625 1325.6875 C580.64869568 1325.23056763 579.73489136 1324.77363525 578.793396 1324.30285645 C563.31847861 1316.57262572 547.72753811 1309.21446702 532 1302 C520.12 1296.39 508.24 1290.78 496 1285 C496 924.31 496 563.62 496 192 C332.32 192 168.64 192 0 192 C0 128.64 0 65.28 0 0 Z " fill="#0E74B7" transform="translate(4726,1240)"/>
<path d="M0 0 C1.1437912 0.00060425 2.2875824 0.0012085 3.46603394 0.00183105 C66.32320065 0.09165126 128.93787117 8.71539067 188.8125 28.1875 C189.91706543 28.54424805 191.02163086 28.90099609 192.15966797 29.26855469 C239.76540675 44.78923253 285.06641511 67.02561623 325.8125 96.1875 C326.57836426 96.7355127 327.34422852 97.28352539 328.13330078 97.84814453 C337.33687057 104.46592309 346.32690966 111.22909127 354.88671875 118.6640625 C357.75083734 121.13431699 360.67415224 123.50947772 363.625 125.875 C367.64692125 129.14499684 371.32585974 132.58762822 374.93359375 136.3046875 C376.74231471 138.11716879 378.61225481 139.77959136 380.5625 141.4375 C388.26366203 148.07538522 395.47126084 155.40807132 402.0546875 163.15234375 C404.1651414 165.59578038 406.36542879 167.94668821 408.5625 170.3125 C413.86666426 176.13100747 418.70524274 182.25244139 423.49951172 188.49365234 C424.68026257 190.01690437 425.88738722 191.51962519 427.09765625 193.01953125 C440.97396345 210.41846875 453.1915008 229.65407984 463.8125 249.1875 C464.28316895 250.04666016 464.75383789 250.90582031 465.23876953 251.79101562 C473.63350429 267.20484252 480.95632132 283.03680196 487.8125 299.1875 C488.21259277 300.02458496 488.61268555 300.86166992 489.02490234 301.72412109 C489.98583932 304.72965554 489.74377506 306.18989689 488.8125 309.1875 C487.1698761 310.78878784 487.1698761 310.78878784 485.0090332 312.17919922 C484.19832367 312.71161224 483.38761414 313.24402527 482.55233765 313.79257202 C481.66494904 314.35344513 480.77756042 314.91431824 479.86328125 315.4921875 C478.9481778 316.08778473 478.03307434 316.68338196 477.09024048 317.29702759 C474.1104732 319.23258435 471.1178018 321.1471735 468.125 323.0625 C465.03924611 325.06165462 461.95693324 327.06604146 458.87467957 329.07058716 C456.92743103 330.33499115 454.97818341 331.59632397 453.02656555 332.85397339 C444.89538867 338.09617489 436.89546931 343.52015817 428.92578125 349.00390625 C419.80165209 355.26767392 410.61359438 361.43775833 401.4375 367.625 C400.49366455 368.26157532 399.5498291 368.89815063 398.57739258 369.55401611 C386.75624236 377.52573963 374.92773498 385.48561927 363.03955078 393.35717773 C357.89820624 396.76725319 352.84454953 400.27222511 347.84594727 403.88916016 C345.8125 405.1875 345.8125 405.1875 343.8125 405.1875 C343.47105957 404.45861572 343.12961914 403.72973145 342.77783203 402.97875977 C321.85539697 358.48091086 293.62388885 317.1817521 255.8125 285.1875 C254.91660156 284.40246094 254.02070313 283.61742187 253.09765625 282.80859375 C183.90333677 222.55775774 91.11613886 190.99521914 -0.0625 190.9375 C-1.02770569 190.93682526 -1.99291138 190.93615051 -2.98736572 190.93545532 C-58.40934299 190.99654682 -114.37664924 201.81093357 -164.86376953 225.11669922 C-167.18000143 226.18404458 -169.50844652 227.22017814 -171.83984375 228.25390625 C-197.51407592 239.82319225 -221.45701437 255.32523455 -243.1875 273.1875 C-243.72584473 273.62288086 -244.26418945 274.05826172 -244.81884766 274.50683594 C-259.91183343 286.75217343 -274.50641726 300.62012547 -286.1875 316.1875 C-287.12123327 317.38241978 -288.05622803 318.57635441 -288.9921875 319.76953125 C-296.51218159 329.45468368 -303.11425205 339.53925983 -309.1875 350.1875 C-309.65043457 350.99815918 -310.11336914 351.80881836 -310.59033203 352.64404297 C-337.55336784 400.48829683 -347.61685363 459.14034943 -333.375 512.625 C-323.8119198 546.53423666 -305.2854696 573.94710814 -281.1875 599.1875 C-280.55457031 599.86167969 -279.92164062 600.53585937 -279.26953125 601.23046875 C-275.18609881 605.46909103 -270.6958354 609.13874834 -266.109375 612.8203125 C-264.22174909 614.34959232 -262.35519373 615.905425 -260.515625 617.4921875 C-193.27260853 675.4275548 -101.31901645 706.9993842 11.59375 750.4375 C49.2564845 764.7736825 86.68074433 779.52699687 123.8125 795.1875 C124.88473816 795.63902435 124.88473816 795.63902435 125.9786377 796.09967041 C159.31209058 810.13905482 192.35471829 824.86228728 224.85107422 840.74951172 C227.81014674 842.18635732 230.77939937 843.59931888 233.75390625 845.00390625 C254.2857091 854.69962272 274.23549303 865.28146774 293.94189453 876.55517578 C296.79462169 878.17733379 299.65855359 879.77753943 302.52734375 881.37109375 C332.11591373 897.84172775 360.19990565 916.57910151 387.5625 936.5 C388.20058594 936.96204834 388.83867187 937.42409668 389.49609375 937.90014648 C390.95416871 938.97015234 392.38665456 940.07490848 393.8125 941.1875 C393.8125 941.5175 393.8125 941.8475 393.8125 942.1875 C393.16124303 942.20442776 392.50998606 942.22135551 391.83899403 942.23879623 C303.86367147 944.52849443 215.9176527 946.87480588 92.37402153 953.89208603 C89.92145444 954.03746658 87.46870522 954.17931434 85.0158844 954.32034302 C77.88058514 954.73461013 70.75206497 955.1755749 63.62795544 955.75422668 C60.54022139 956.00302752 57.45113615 956.23170557 54.36174583 956.45888901 C52.9349655 956.56966141 51.50891098 956.69037127 50.08394814 956.82248306 C40.03528054 957.75257675 32.5037101 956.53274545 23.25 952.5 C22.19026978 952.03889076 22.19026978 952.03889076 21.10913086 951.56846619 C19.42023138 950.78881782 17.75982294 949.94832422 16.1015625 949.10546875 C7.03823542 944.65316833 -2.35472486 941.09790043 -11.78076172 937.49609375 C-14.90357944 936.30156792 -18.02252175 935.09739905 -21.140625 933.890625 C-36.40485456 927.98896591 -51.70949742 922.19537594 -67.01824951 916.41043091 C-91.18895048 907.27501207 -115.26896232 897.96464953 -139.1875 888.1875 C-140.02202698 887.8469458 -140.85655396 887.5063916 -141.71636963 887.15551758 C-166.04822503 877.22367938 -190.23216248 866.99760614 -214.1875 856.1875 C-215.95262939 855.39279297 -215.95262939 855.39279297 -217.75341797 854.58203125 C-245.93392958 841.84163198 -273.91668861 828.29959157 -300.62255859 812.67724609 C-303.28348408 811.13175139 -305.96087761 809.6189316 -308.64453125 808.11328125 C-319.12697477 802.22159984 -329.35084012 796.05933877 -339.36376953 789.39990234 C-341.00715678 788.30739082 -342.65746515 787.22530754 -344.30859375 786.14453125 C-362.68764926 774.04976609 -380.51890622 761.10505825 -397.1953125 746.7421875 C-400.06668941 744.29064638 -402.99028357 741.92190595 -405.9375 739.5625 C-410.17536525 736.11808122 -414.05171539 732.46982378 -417.82421875 728.5234375 C-419.8184881 726.55224234 -421.85018609 724.73748257 -423.9765625 722.9140625 C-428.21022167 719.23915789 -432.05964294 715.29037741 -435.875 711.1875 C-436.56779053 710.4447583 -437.26058105 709.7020166 -437.97436523 708.93676758 C-460.44961924 684.71776611 -479.76793593 658.46163724 -495.1875 629.1875 C-495.53619141 628.52862793 -495.88488281 627.86975586 -496.24414062 627.19091797 C-523.41636536 575.45718416 -535.46321651 517.57338998 -535.375 459.375 C-535.37439575 458.62426208 -535.3737915 457.87352417 -535.37316895 457.10003662 C-535.16112264 358.83726154 -500.53603367 263.35399542 -437.1875 188.1875 C-436.75002441 187.66510742 -436.31254883 187.14271484 -435.86181641 186.60449219 C-422.38074693 170.53217091 -408.14877028 154.43895172 -392.12109375 140.84375 C-389.88413065 138.92764423 -387.72946422 136.93237144 -385.5625 134.9375 C-379.95599986 129.88567643 -374.06351251 125.25928231 -368.08691406 120.65869141 C-366.19977156 119.19700494 -364.32946646 117.71584704 -362.4609375 116.23046875 C-345.11152252 102.55819794 -326.40552347 90.07823538 -307.1875 79.1875 C-306.18759033 78.61757324 -306.18759033 78.61757324 -305.16748047 78.03613281 C-300.65767223 75.47409254 -296.12246218 72.96220811 -291.56640625 70.48339844 C-289.9936055 69.62662233 -288.4232376 68.76536344 -286.85546875 67.89941406 C-261.13552725 53.72785426 -233.90599997 42.76229426 -206.1875 33.1875 C-204.51252441 32.60258789 -204.51252441 32.60258789 -202.80371094 32.00585938 C-151.9670984 14.40568742 -97.84709478 4.44662366 -44.1875 1.1875 C-43.55619171 1.14619965 -42.92488342 1.10489929 -42.27444458 1.06234741 C-28.18328522 0.15020608 -14.11776064 -0.01384509 0 0 Z " fill="#0E73B7" transform="translate(2764.1875,1214.8125)"/>
<path d="M0 0 C7.59 0 15.18 0 23 0 C36.86734451 30.15460928 50.70430409 60.32270081 64.42779541 90.54309082 C69.2687546 101.20294217 74.12895724 111.85386401 79 122.5 C84.49327295 134.50608037 89.96831138 146.52026235 95.42724609 158.54199219 C100.26839859 169.2022049 105.1287871 179.85349215 110 190.5 C115.49371039 202.50703644 120.97066094 214.52151626 126.42825317 226.54501343 C129.91671427 234.23016595 133.41365592 241.91123711 136.93359375 249.58203125 C138.26847794 252.49207347 139.60313369 255.40222028 140.9375 258.3125 C141.26894012 259.03531158 141.60038025 259.75812317 141.94186401 260.50283813 C147.41452801 272.44659458 152.75828412 284.44427406 158.06710815 296.46157837 C163.03715918 307.70116766 168.17046973 318.85190326 173.42752075 329.95980835 C178.80244803 341.32588423 183.93754294 352.78731343 189.01025391 364.29101562 C193.70410614 374.927689 198.52602094 385.49151975 203.5 396 C209.18857602 408.01820273 214.64551747 420.1250691 220.01025391 432.29101562 C224.70410614 442.927689 229.52602094 453.49151975 234.5 464 C240.18857602 476.01820273 245.64551747 488.1250691 251.01025391 500.29101562 C255.70410614 510.927689 260.52602094 521.49151975 265.5 532 C271.18857602 544.01820273 276.64551747 556.1250691 282.01025391 568.29101562 C286.70410614 578.927689 291.52602094 589.49151975 296.5 600 C302.18857602 612.01820273 307.64551747 624.1250691 313.01025391 636.29101562 C317.70410614 646.927689 322.52602094 657.49151975 327.5 668 C333.18857602 680.01820273 338.64551747 692.1250691 344.01025391 704.29101562 C348.70410614 714.927689 353.52602094 725.49151975 358.5 736 C364.18857602 748.01820273 369.64551747 760.1250691 375.01025391 772.29101562 C379.70410614 782.927689 384.52602094 793.49151975 389.5 804 C395.18857602 816.01820273 400.64551747 828.1250691 406.01025391 840.29101562 C410.70410614 850.927689 415.52602094 861.49151975 420.5 872 C426.18857602 884.01820273 431.64551747 896.1250691 437.01025391 908.29101562 C441.70410614 918.927689 446.52602094 929.49151975 451.5 940 C457.18857602 952.01820273 462.64551747 964.1250691 468.01025391 976.29101562 C472.70410614 986.927689 477.52602094 997.49151975 482.5 1008 C487.83130024 1019.26338944 492.9719297 1030.5980709 498 1042 C503.15625198 1053.69111895 508.4269429 1065.31685355 513.875 1076.875 C514.49743452 1078.19749156 515.11983092 1079.52000106 515.7421875 1080.8425293 C518.03816335 1085.71896567 520.33627845 1090.59439053 522.63769531 1095.46826172 C524.10171406 1098.57849842 525.55281513 1101.6944033 527 1104.8125 C527.42780762 1105.71403809 527.85561523 1106.61557617 528.29638672 1107.54443359 C528.86123779 1108.76960693 528.86123779 1108.76960693 529.4375 1110.01953125 C529.76621094 1110.72182861 530.09492188 1111.42412598 530.43359375 1112.14770508 C531 1114 531 1114 530 1117 C529.33081039 1116.8247731 528.66162079 1116.6495462 527.97215271 1116.4690094 C465.66098835 1100.16659184 403.1298148 1085.03148918 340.21850586 1071.21966553 C337.45960195 1070.61353338 334.70244229 1070.00027721 331.9465332 1069.38067627 C326.37379342 1068.13604393 320.82775214 1066.93007823 315.18603516 1066.04223633 C304.34304994 1064.27336268 304.34304994 1064.27336268 300.80737305 1060.92114258 C299.0948712 1058.10849453 298.04833027 1055.43328936 297 1052.3125 C296.05519249 1049.94328898 295.10844435 1047.57485129 294.16015625 1045.20703125 C293.65785134 1043.88667331 293.15675117 1042.56585653 292.65673828 1041.24462891 C289.90612763 1034.0804574 286.70271257 1027.10349891 283.58642578 1020.09310913 C282.42459469 1017.47087289 281.27308557 1014.84434569 280.125 1012.21606445 C274.68543739 999.76358418 269.12362564 987.37030408 263.5 975 C256.82730421 960.31877398 250.27558561 945.58997392 243.81787109 930.81298828 C238.29201763 918.17178443 232.68123715 905.57210649 227 893 C220.53061255 878.68288572 214.16948501 864.32205577 207.875 849.92724609 C201.9635067 836.41342872 195.94807295 822.94967495 189.87399292 809.50823975 C184.18606739 796.9165971 178.59529317 784.28551713 173.0625 771.625 C166.97778795 757.70230883 160.78652083 743.83271895 154.5 730 C147.82776363 715.31856127 141.27558884 700.58998132 134.81787109 685.81298828 C129.29201763 673.17178443 123.68123715 660.57210649 118 648 C111.53061255 633.68288572 105.16948501 619.32205577 98.875 604.92724609 C92.9635067 591.41342872 86.94807295 577.94967495 80.87399292 564.50823975 C75.18606739 551.9165971 69.59529317 539.28551713 64.0625 526.625 C57.59578927 511.82824122 51.00019922 497.09505289 44.31561279 482.39550781 C37.38832496 467.15726411 30.62518742 451.85116647 23.9609375 436.49609375 C20.20569452 427.8659976 16.34466749 419.35393535 12 411 C2.54334039 431.77964023 -6.86231609 452.57781087 -16 473.5 C-22.19032474 487.67178387 -28.4848377 501.79216842 -34.875 515.875 C-35.28025909 516.76818939 -35.68551819 517.66137878 -36.10305786 518.58163452 C-36.90620086 520.35163015 -37.70934716 522.12162427 -38.51249695 523.89161682 C-38.89895889 524.74335983 -39.28542084 525.59510284 -39.68359375 526.47265625 C-40.0630867 527.30897079 -40.44257965 528.14528534 -40.83357239 529.00694275 C-45.36644497 539.00301385 -49.81778313 549.03475418 -54.26025391 559.07128906 C-58.0417761 567.6130084 -61.83335886 576.15026895 -65.625 584.6875 C-66.05414703 585.65398468 -66.48329407 586.62046936 -66.92544556 587.61624146 C-73.31576324 602.00466095 -79.76058244 616.36760416 -86.23861694 630.71670532 C-92.26841121 644.07980541 -98.18035618 657.4918157 -104.05212402 670.92498779 C-109.89574264 684.28635489 -115.84945836 697.59472417 -121.875 710.875 C-122.28016846 711.76800812 -122.68533691 712.66101624 -123.1027832 713.58108521 C-123.90597002 715.35117327 -124.70916206 717.12125897 -125.51235962 718.89134216 C-125.89886688 719.74317581 -126.28537415 720.59500946 -126.68359375 721.47265625 C-127.06309174 722.30898087 -127.44258972 723.14530548 -127.83358765 724.00697327 C-132.35914402 733.98692313 -136.80313261 744.00253467 -141.23828125 754.02294922 C-145.12945494 762.8107627 -149.03483929 771.59228394 -152.9375 780.375 C-153.37536835 781.36053864 -153.81323669 782.34607727 -154.26437378 783.36148071 C-159.81943512 795.86354418 -165.39198722 808.35732987 -170.99902344 820.83618164 C-176.36297351 832.78523278 -181.66987468 844.75954433 -186.98284912 856.73132324 C-192.98690541 870.25731998 -199.03587621 883.76211007 -205.125 897.25 C-212.48398373 913.55250001 -219.70643296 929.91261183 -226.8732605 946.30041504 C-228.57971066 950.2013586 -230.28877415 954.10114912 -232 958 C-232.55608948 959.26728943 -232.55608948 959.26728943 -233.12341309 960.56018066 C-234.23317789 963.08561077 -235.3464875 965.60944695 -236.4609375 968.1328125 C-236.80186432 968.90930145 -237.14279114 969.68579041 -237.49404907 970.48580933 C-239.88506279 975.88506279 -239.88506279 975.88506279 -241 977 C-243.6780891 976.94944958 -246.31967365 976.83282414 -248.9909668 976.66259766 C-249.8027045 976.61377756 -250.6144422 976.56495747 -251.45077801 976.51465797 C-258.94058767 976.04365748 -266.40532893 975.37353978 -273.8719368 974.62581825 C-276.25536377 974.38734833 -278.63924781 974.15396453 -281.02328491 973.92167664 C-284.48607168 973.58405524 -287.94870674 973.24494196 -291.41122437 972.90457153 C-327.99515349 969.31295246 -364.60246564 966.12065181 -401.2434082 963.17138672 C-402.55603134 963.06559469 -402.55603134 963.06559469 -403.89517212 962.95766544 C-407.98530074 962.62816612 -412.0755364 962.30020818 -416.16610718 961.97624207 C-423.12487899 961.42183531 -430.06814515 960.83115883 -437 960 C-433.46568136 951.28744561 -429.63913753 942.7342083 -425.70175171 934.19940186 C-420.09174105 922.0341102 -414.56981531 909.83362004 -409.16003418 897.57803345 C-402.28156739 881.99658376 -395.18873573 866.52318813 -388.00341797 851.08105469 C-382.436578 839.11576507 -376.93577801 827.12275589 -371.48974609 815.10205078 C-370.88380539 813.76464104 -370.27784837 812.42723869 -369.671875 811.08984375 C-369.37258087 810.42917908 -369.07328674 809.7685144 -368.7649231 809.08782959 C-366.54873152 804.19981556 -364.31676091 799.31917743 -362.078125 794.44140625 C-354.92549404 778.85159065 -347.86402358 763.22805812 -340.93289185 747.53842163 C-335.96149231 736.29578273 -330.82571586 725.14260064 -325.56845093 714.03112793 C-320.64089524 703.60768181 -315.90114028 693.1119752 -311.25 682.5625 C-305.0922868 668.59611451 -298.7361222 654.73174029 -292.28686523 640.89776611 C-286.30392417 628.05688337 -280.47610347 615.15700284 -274.76123047 602.19482422 C-269.85025713 591.06409705 -264.77088005 580.02627406 -259.56762695 569.02947998 C-254.64035638 558.60658121 -249.90089136 548.11141062 -245.25 537.5625 C-239.0922868 523.59611451 -232.7361222 509.73174029 -226.28686523 495.89776611 C-220.30392417 483.05688337 -214.47610347 470.15700284 -208.76123047 457.19482422 C-203.85025713 446.06409705 -198.77088005 435.02627406 -193.56762695 424.02947998 C-188.64035136 413.6065706 -183.90124305 403.11126249 -179.25 392.5625 C-173.45072052 379.41340136 -167.50056 366.34207469 -161.4375 353.3125 C-161.03522186 352.44793182 -160.63294373 351.58336365 -160.21847534 350.69259644 C-159.81758698 349.83102936 -159.41669861 348.96946228 -159.00366211 348.08178711 C-153.43687498 336.1161917 -147.93588347 324.12298868 -142.48974609 312.10205078 C-141.88380539 310.76464104 -141.27784837 309.42723869 -140.671875 308.08984375 C-140.37258087 307.42917908 -140.07328674 306.7685144 -139.7649231 306.08782959 C-137.54873153 301.19981558 -135.31676461 296.31917573 -133.078125 291.44140625 C-126.35667771 276.79165546 -119.700938 262.11853649 -113.1875 247.375 C-106.62836499 232.530599 -99.84984022 217.79485991 -93.00341797 203.08105469 C-87.436578 191.11576507 -81.93577801 179.12275589 -76.48974609 167.10205078 C-75.88380539 165.76464104 -75.27784837 164.42723869 -74.671875 163.08984375 C-74.37258087 162.42917908 -74.07328674 161.7685144 -73.7649231 161.08782959 C-71.54873153 156.19981558 -69.31676461 151.31917573 -67.078125 146.44140625 C-60.35667648 131.79165278 -53.7011158 117.11845925 -47.1875 102.375 C-40.65768001 87.59870051 -33.91744762 72.92661653 -27.10009766 58.28100586 C-26.30497182 56.57277308 -25.50988705 54.86452119 -24.71484375 53.15625 C-24.12766571 51.89470848 -24.12766571 51.89470848 -23.52862549 50.60768127 C-18.65243189 40.11915435 -13.85928868 29.59260493 -9.07421875 19.06225586 C-8.76072983 18.37381592 -8.44724091 17.68537598 -8.12425232 16.97607422 C-7.28881519 15.14138433 -6.45500638 13.30595321 -5.62133789 11.47045898 C-3.81908071 7.61274391 -1.90421094 3.80842188 0 0 Z " fill="#0E7ABB" transform="translate(4132,1213)"/>
<path d="M0 0 C1.61397613 3.03670476 3.22305359 6.07597947 4.83129883 9.11572266 C5.28563545 9.97041641 5.73997208 10.82511017 6.20807648 11.70570374 C9.42679805 17.79736485 12.2876208 23.91154402 14.6875 30.375 C15.23555298 31.82048218 15.23555298 31.82048218 15.79467773 33.29516602 C16.8814329 36.19041451 17.94455022 39.09321236 19 42 C19.3103418 42.84191895 19.62068359 43.68383789 19.94042969 44.55126953 C27.84795404 66.20857314 33.30528601 88.80129033 36.875 111.5625 C37.06594238 112.77139893 37.25688477 113.98029785 37.45361328 115.22583008 C40.53281333 136.11162802 41.37642183 156.90807248 41.3125 178 C41.31067719 179.25213287 41.30885437 180.50426575 41.30697632 181.79434204 C41.26069001 200.70614471 40.75396714 219.26290247 38 238 C37.82307617 239.24056152 37.64615234 240.48112305 37.46386719 241.75927734 C25.83873354 321.47878194 -7.03879033 396.34518651 -59 458 C-59.43747559 458.52239258 -59.87495117 459.04478516 -60.32568359 459.58300781 C-74.4124544 476.37745476 -89.35442617 493.25512615 -106.13671875 507.4140625 C-108.35471185 509.30191407 -110.48242155 511.27702792 -112.625 513.25 C-118.21539675 518.28815391 -124.10032672 522.88542589 -130.05322266 527.48144531 C-132.03533853 529.0275653 -133.99366225 530.60014443 -135.94921875 532.1796875 C-189.32226651 574.98847055 -253.16241708 605.91920381 -318 627 C-319.58699707 627.52787109 -319.58699707 627.52787109 -321.20605469 628.06640625 C-377.31621108 646.6753021 -436.10029298 657.53246544 -495 662 C-495.68676819 662.05220703 -496.37353638 662.10441406 -497.08111572 662.15820312 C-538.21745013 665.22717756 -579.88015063 665.40805409 -621 662 C-621.76451477 661.93683594 -622.52902954 661.87367188 -623.31671143 661.80859375 C-701.88276207 655.21885742 -779.46258495 637.1821356 -1000 515 C-1000.57975586 514.51934082 -1001.15951172 514.03868164 -1001.75683594 513.54345703 C-1009.18800085 507.37495137 -1016.39159051 500.99766252 -1023.46435547 494.42236328 C-1025.05414072 492.94985313 -1026.65288063 491.48761987 -1028.25390625 490.02734375 C-1037.27237987 481.787702 -1046.19423864 473.45442122 -1054.1328125 464.1484375 C-1056.0277202 461.96810437 -1057.97909863 459.84643522 -1059.94458008 457.72973633 C-1065.5530849 451.6828128 -1070.87766756 445.46699253 -1076 439 C-1076.50370117 438.36884277 -1077.00740234 437.73768555 -1077.52636719 437.08740234 C-1099.94330182 408.94375524 -1118.43302645 378.9076565 -1134.75 346.875 C-1135.39618286 345.6219104 -1135.39618286 345.6219104 -1136.05541992 344.34350586 C-1136.4444751 343.5675708 -1136.83353027 342.79163574 -1137.234375 341.9921875 C-1137.57694336 341.31526855 -1137.91951172 340.63834961 -1138.27246094 339.94091797 C-1139 338 -1139 338 -1139 334 C-1137.6015625 332.54296875 -1137.6015625 332.54296875 -1135.625 331.1875 C-1134.89539062 330.67574219 -1134.16578125 330.16398437 -1133.4140625 329.63671875 C-1132.61742188 329.09660156 -1131.82078125 328.55648437 -1131 328 C-1129.33234534 326.83474603 -1127.665697 325.66805068 -1126 324.5 C-1125.15695313 323.91347656 -1124.31390625 323.32695312 -1123.4453125 322.72265625 C-1119.90295268 320.22715995 -1116.45009264 317.62081074 -1113 315 C-1106.63582802 310.19193794 -1100.18855364 305.50918273 -1093.7109375 300.85546875 C-1088.76332434 297.29352732 -1083.86541227 293.67328934 -1079 290 C-1073.38434251 285.76029046 -1067.71442604 281.60558689 -1062 277.5 C-1056.3102236 273.4107574 -1050.65872505 269.27893953 -1045.0625 265.0625 C-1032.19801161 255.3700113 -1019.21997038 245.83354691 -1006.13720703 236.43774414 C-1005.44868652 235.94266357 -1004.76016602 235.44758301 -1004.05078125 234.9375 C-1003.05038818 234.22207031 -1003.05038818 234.22207031 -1002.02978516 233.4921875 C-1000.60188296 232.44247157 -999.19695145 231.3611422 -997.81005859 230.2578125 C-997.10316895 229.69835938 -996.3962793 229.13890625 -995.66796875 228.5625 C-994.71893677 227.79099609 -994.71893677 227.79099609 -993.75073242 227.00390625 C-993.17299072 226.67261719 -992.59524902 226.34132813 -992 226 C-987.71337749 227.42887417 -986.89224343 230.5631679 -984.9375 234.375 C-975.43805036 252.16077404 -963.76410512 269.39942708 -951 285 C-950.28199219 285.89589844 -949.56398438 286.79179687 -948.82421875 287.71484375 C-946.5752836 290.49904943 -944.29170709 293.25088725 -942 296 C-941.58307388 296.50232651 -941.16614777 297.00465302 -940.73658752 297.52220154 C-933.3290459 306.41818294 -925.52124937 314.79539613 -917.30883789 322.9519043 C-915.42811472 324.82183141 -913.55843181 326.70232638 -911.68945312 328.58398438 C-905.53681678 334.74349981 -899.33206488 340.58223287 -892.50292969 345.99145508 C-890.05319573 347.95731162 -887.72120299 350.00791698 -885.39453125 352.1171875 C-881.01169018 356.05172821 -876.41700837 359.6188616 -871.6875 363.125 C-870.82068604 363.76896729 -869.95387207 364.41293457 -869.06079102 365.07641602 C-866.37977351 367.05913325 -863.69125776 369.03121088 -861 371 C-860.19626953 371.59119629 -859.39253906 372.18239258 -858.56445312 372.79150391 C-790.27945092 422.76268315 -707.81231987 452.95810577 -624.3125 464.3125 C-623.23033203 464.45977539 -622.14816406 464.60705078 -621.03320312 464.75878906 C-599.61936782 467.46883876 -578.259273 468.37750258 -556.6875 468.3125 C-554.79087112 468.30976578 -554.79087112 468.30976578 -552.85592651 468.30697632 C-532.09544865 468.25681642 -511.6071788 467.53250367 -491 465 C-490.2790918 464.91278687 -489.55818359 464.82557373 -488.81542969 464.73571777 C-468.00058347 462.20212231 -447.43851059 458.72763367 -427 454 C-425.91444824 453.75056641 -424.82889648 453.50113281 -423.71044922 453.24414062 C-370.46492067 440.77986465 -317.7778023 419.61016742 -273 388 C-272.21641113 387.44699219 -271.43282227 386.89398437 -270.62548828 386.32421875 C-259.55132467 378.45123262 -249.08231575 370.10320071 -239 361 C-237.88022325 360.00388948 -236.76043183 359.00779546 -235.640625 358.01171875 C-223.1392663 346.7879796 -212.02409651 334.47426698 -202 321 C-201.26716797 320.01990967 -201.26716797 320.01990967 -200.51953125 319.02001953 C-192.71314047 308.50196152 -185.99526078 297.64207089 -180 286 C-179.57976563 285.19079102 -179.15953125 284.38158203 -178.7265625 283.54785156 C-165.99658815 258.77262117 -157.72248021 231.76296675 -155 204 C-154.88914062 202.87980469 -154.77828125 201.75960937 -154.6640625 200.60546875 C-149.67284054 141.58764154 -169.31170761 85.24060805 -207.09155273 40.04125977 C-209.37301125 37.34218638 -211.68196035 34.66766855 -214 32 C-214.71671875 31.16984375 -215.4334375 30.3396875 -216.171875 29.484375 C-222.59098811 22.19650974 -229.50765552 15.40173898 -236.40869141 8.57519531 C-238.27926105 6.72356669 -240.14122154 4.86346052 -242 3 C-239.43789862 1.71894931 -237.51615993 1.79884384 -234.64526367 1.70288086 C-233.48453339 1.66292496 -232.3238031 1.62296906 -231.12789917 1.58180237 C-229.82112213 1.54320602 -228.51434509 1.50460968 -227.16796875 1.46484375 C-226.12765188 1.43305936 -226.12765188 1.43305936 -225.06631851 1.40063286 C-219.44045491 1.22977484 -213.81410218 1.08165978 -208.1875 0.9375 C-207.33886257 0.91513527 -206.49022514 0.89277054 -205.61587143 0.86972809 C-137.10864847 -0.9249227 -68.52431469 -0.17243487 0 0 Z " fill="#0C9CD5" transform="translate(3288,2306)"/>
<path d="M0 0 C64.02 0 128.04 0 194 0 C194.01981934 31.79561279 194.03963867 63.59122559 194.06005859 96.3503418 C194.07358496 117.58517978 194.08714467 138.82001769 194.10116577 160.05485535 C194.10160655 160.72314911 194.10204732 161.39144287 194.10250145 162.07998795 C194.13292587 208.20687644 194.16605554 254.33376255 194.20132446 300.46064758 C194.20246954 301.95920792 194.20361461 303.45776826 194.20475969 304.95632859 C194.22880814 336.41713603 194.25326244 367.87794315 194.27818505 399.33874991 C194.29070559 415.14446808 194.30314821 430.95018631 194.31551713 446.7559046 C194.31738329 449.14001642 194.31925168 451.52412823 194.32112016 453.90824005 C194.34984478 490.58480082 194.37690667 527.26136189 194.39910889 563.93792725 C194.39958565 564.72545337 194.40006241 565.5129795 194.40055362 566.32437005 C194.4082294 579.0202009 194.4157646 591.71603183 194.42328111 604.41186277 C194.44495467 641.01616147 194.46768182 677.62045818 194.49726295 714.22475147 C194.49817625 715.35581918 194.49817625 715.35581918 194.499108 716.50973674 C194.51249835 733.06989987 194.5264224 749.6300625 194.54085055 766.19022475 C194.54664813 772.85526405 194.552369 779.52030341 194.55806351 786.18534279 C194.55900109 787.27947607 194.55900109 787.27947607 194.55995762 788.39571306 C194.58000005 811.82899299 194.59381967 835.26227142 194.60431816 858.69555741 C194.61523463 882.9956299 194.63319436 907.29568734 194.65916704 931.59574857 C194.67390093 945.58299667 194.6832231 959.57022318 194.68456683 973.55747911 C194.68601582 982.92822052 194.69475687 992.29893774 194.70915592 1001.66966813 C194.71713265 1006.99146837 194.72219802 1012.31322123 194.71827881 1017.63502713 C194.70590697 1037.16284592 194.84098645 1056.6442011 195.90802956 1076.14698505 C195.9479034 1076.88048154 195.98777725 1077.61397802 196.02885939 1078.36970167 C199.99710406 1149.30088379 216.56099802 1219.71181739 247 1284 C247.50611816 1285.07266113 248.01223633 1286.14532227 248.53369141 1287.25048828 C264.47601706 1320.74897955 284.33483385 1352.13185511 308.0625 1380.66796875 C308.701875 1381.43753906 309.34125 1382.20710938 310 1383 C310.763125 1383.86238281 311.52625 1384.72476563 312.3125 1385.61328125 C313.1478125 1386.79470703 313.1478125 1386.79470703 314 1388 C312.79598091 1391.61205728 312.10215422 1391.78813907 308.85546875 1393.5390625 C307.96537109 1394.02818115 307.07527344 1394.5172998 306.15820312 1395.02124023 C305.17787109 1395.55048096 304.19753906 1396.07972168 303.1875 1396.625 C293.99683201 1401.70004274 284.95628427 1406.96386391 276 1412.4375 C275.41002228 1412.7977829 274.82004456 1413.1580658 274.21218872 1413.52926636 C271.84299881 1414.9765818 269.47439588 1416.42484544 267.10710144 1417.8752594 C263.372807 1420.16314008 259.63087589 1422.43787924 255.8828125 1424.703125 C201.41182787 1457.52680484 201.41182787 1457.52680484 149.87841797 1494.67553711 C148 1496 148 1496 146 1496 C144.70996094 1494.57324219 144.70996094 1494.57324219 143.234375 1492.546875 C142.68120605 1491.79277344 142.12803711 1491.03867188 141.55810547 1490.26171875 C140.66309326 1489.01841797 140.66309326 1489.01841797 139.75 1487.75 C139.12883301 1486.89535156 138.50766602 1486.04070312 137.86767578 1485.16015625 C135.90241281 1482.44671683 133.94948501 1479.72479295 132 1477 C131.39446289 1476.15630859 130.78892578 1475.31261719 130.16503906 1474.44335938 C75.30633564 1397.7914724 37.67724096 1309.28511121 -0.12304783 1060.91837883 C-0.12378941 1059.05553742 -0.12497005 1057.19269615 -0.12654433 1055.32985526 C-0.12958876 1050.24151786 -0.12645889 1045.1532007 -0.12226619 1040.06486482 C-0.11881184 1034.51773737 -0.12120661 1028.97061183 -0.12284368 1023.42348397 C-0.12491182 1013.71193919 -0.12328322 1004.00040056 -0.11920547 994.28885651 C-0.11315895 979.84824848 -0.11286906 965.40764335 -0.11374746 950.96703447 C-0.11515263 926.67310927 -0.11173225 902.37918669 -0.10573006 878.0852623 C-0.09980239 854.03538881 -0.09595393 829.98551645 -0.09487724 805.93564224 C-0.09484283 805.18803021 -0.09480842 804.44041818 -0.09477296 803.67015125 C-0.09445975 796.84160703 -0.09417206 790.01306282 -0.09391499 783.1845186 C-0.09327569 766.21148856 -0.09231643 749.23845855 -0.09113979 732.26542854 C-0.09108648 731.49261697 -0.09103316 730.7198054 -0.09097823 729.9235753 C-0.08835834 692.35448597 -0.08205145 654.78539739 -0.07543945 617.21630859 C-0.07314774 604.18322754 -0.07087235 591.15014649 -0.06866455 578.11706543 C-0.0685276 577.30872388 -0.06839065 576.50038234 -0.06824955 575.66754559 C-0.06190241 538.07143085 -0.05817889 500.47531598 -0.05512976 462.87920084 C-0.05493169 460.43765001 -0.0547325 457.99609918 -0.05453308 455.55454834 C-0.05321326 439.37390959 -0.05193862 423.19327082 -0.05069422 407.01263206 C-0.04821788 374.81872184 -0.04547621 342.62481164 -0.04255217 310.43090146 C-0.04241293 308.89783374 -0.04227388 307.36476602 -0.04213501 305.8316983 C-0.03496236 226.66721735 -0.02355887 147.50273712 -0.0111084 68.33825684 C-0.01093499 67.23550771 -0.01076159 66.13275858 -0.01058293 64.9965928 C-0.00716846 43.33106185 -0.00356631 21.66553093 0 0 Z " fill="#0E80C0" transform="translate(738,1240)"/>
<path d="M0 0 C64.35 0 128.7 0 195 0 C195 344.85 195 689.7 195 1045 C178.46623302 1048.99090927 161.94200905 1052.9662678 145.36865234 1056.7800293 C121.14903574 1062.3648189 96.98510637 1068.14715361 72.875 1074.1875 C71.86881559 1074.43955263 71.86881559 1074.43955263 70.84230423 1074.69669724 C51.14446283 1079.63414109 31.47446232 1084.67692727 11.85107422 1089.90307617 C11.04764587 1090.11635056 10.24421753 1090.32962494 9.41644287 1090.54936218 C7.94256815 1090.94105281 6.46925623 1091.33487023 4.99664307 1091.73127747 C0.22282493 1093 0.22282493 1093 -2 1093 C-1.92942123 1091.92109569 -1.85884247 1090.84219138 -1.78612495 1089.730593 C-1.08455156 1078.47478466 -0.85389697 1067.27172688 -0.8613348 1055.99646568 C-0.85888068 1054.14215104 -0.85599485 1052.28783692 -0.85272202 1050.43352354 C-0.84501748 1045.36886635 -0.84338323 1040.30422318 -0.8427946 1035.23956086 C-0.84105506 1029.71809518 -0.83356392 1024.19663672 -0.82681805 1018.67517531 C-0.81579252 1009.00869551 -0.80840162 999.34221829 -0.80341911 989.67573357 C-0.79599375 975.3021279 -0.78290783 960.92853061 -0.76867336 946.55493036 C-0.74479758 922.3737035 -0.72566643 898.19247477 -0.70907402 874.01124191 C-0.69263436 850.07300979 -0.67415022 826.13478066 -0.65294075 802.19655228 C-0.65228236 801.45240428 -0.65162396 800.70825629 -0.65094561 799.94155835 C-0.64493088 793.14465158 -0.63889104 786.34774483 -0.63282111 779.5508381 C-0.61773401 762.65646425 -0.60296151 745.76209014 -0.58840275 728.86771584 C-0.58740804 727.71387189 -0.58740804 727.71387189 -0.58639324 726.53671797 C-0.55418345 689.1419936 -0.52559894 651.74726657 -0.49731445 614.35253906 C-0.4875003 601.37998451 -0.4776701 588.40742998 -0.46777344 575.43487549 C-0.46715964 574.63028768 -0.46654584 573.82569987 -0.46591344 572.99673061 C-0.43734346 535.57503458 -0.40619373 498.15334083 -0.37438093 460.73164743 C-0.37231499 458.30141665 -0.37025017 455.87118587 -0.36818558 453.44095509 C-0.35450131 437.33533329 -0.34077264 421.22971153 -0.32701423 405.1240898 C-0.29964014 373.07945184 -0.27252694 341.03481367 -0.24559305 308.99017534 C-0.24431046 307.46421675 -0.24302769 305.93825815 -0.24174474 304.41229956 C-0.17549762 225.61518559 -0.11341052 146.81806846 -0.05235291 68.02095032 C-0.05150236 66.92332096 -0.05065181 65.8256916 -0.04977548 64.69480074 C-0.03307238 43.12986725 -0.01655381 21.56493361 0 0 Z " fill="#0E78BA" transform="translate(1808,1240)"/>
<path d="M0 0 C-1.48078055 10.00257523 -3.66595315 19.79504574 -6 29.625 C-6.19596771 30.45158112 -6.39193542 31.27816223 -6.59384155 32.12979126 C-18.70693322 82.95006217 -36.36414255 131.92522198 -59 179 C-59.45439453 179.9472998 -59.90878906 180.89459961 -60.37695312 181.87060547 C-82.678382 228.08590466 -111.02885742 271.93170124 -144.40234375 310.93359375 C-146.72652742 313.65770986 -148.95923584 316.44669993 -151.1875 319.25 C-162.34904183 332.87250678 -175.07519778 345.17133036 -187.5 357.625 C-188.15584076 358.28351959 -188.81168152 358.94203918 -189.48739624 359.62051392 C-196.14434664 366.2980628 -202.76717708 372.9393279 -210 379 C-211.10686223 379.96063634 -212.2123571 380.92285068 -213.31640625 381.88671875 C-227.68468591 394.31511625 -242.59442636 405.88519982 -258 417 C-258.81662109 417.59103516 -259.63324219 418.18207031 -260.47460938 418.79101562 C-271.87544151 427.01147379 -283.52845042 434.56241633 -295.67285156 441.63574219 C-297.8232309 442.89637162 -299.95706223 444.18004513 -302.0859375 445.4765625 C-315.03170933 453.31857489 -328.49120604 460.18723047 -342 467 C-342.98274902 467.49677246 -343.96549805 467.99354492 -344.97802734 468.50537109 C-369.43561205 480.77870892 -395.02091522 490.47643413 -421 499 C-422.00820801 499.33451172 -423.01641602 499.66902344 -424.05517578 500.01367188 C-467.95477882 514.47073903 -513.11482693 522.36381197 -559 527 C-559.6845929 527.07003235 -560.36918579 527.1400647 -561.07452393 527.21221924 C-598.80562002 531.02299418 -638.28096852 530.85256661 -676 527 C-676.77202759 526.92223328 -677.54405518 526.84446655 -678.33947754 526.76434326 C-702.45558828 524.31636972 -726.28616087 521.06278264 -750 516 C-751.86906006 515.60192139 -751.86906006 515.60192139 -753.77587891 515.19580078 C-805.93069884 503.90941949 -855.35385761 485.88240637 -903 462 C-904.33611328 461.33387695 -904.33611328 461.33387695 -905.69921875 460.65429688 C-934.38520862 446.26569623 -961.34608277 428.42063661 -987.12158203 409.36572266 C-988.41620103 408.42445691 -989.72559082 407.50328798 -991.04638672 406.59912109 C-992.72949151 405.44459467 -994.36947476 404.22766464 -996 403 C-996 402.34 -996 401.68 -996 401 C-993.86091525 399.39067958 -991.72274116 397.90997925 -989.484375 396.44921875 C-988.80595551 395.99882736 -988.12753601 395.54843597 -987.42855835 395.08439636 C-985.20679326 393.61195232 -982.97858433 392.14959818 -980.75 390.6875 C-979.22215877 389.67840374 -977.69465286 388.6687996 -976.16748047 387.65869141 C-971.78449994 384.76300964 -967.39303087 381.88040172 -963 379 C-961.40623535 377.95271729 -961.40623535 377.95271729 -959.78027344 376.88427734 C-954.20676831 373.22487537 -948.61360044 369.59757056 -943 366 C-942.2687793 365.53045898 -941.53755859 365.06091797 -940.78417969 364.57714844 C-919.64061964 351.02785876 -898.11708658 338.10677743 -876.32421875 325.6328125 C-872.10302631 323.21568737 -867.89828703 320.77335739 -863.70703125 318.3046875 C-843.83622466 306.60076047 -843.83622466 306.60076047 -833.796875 301.58740234 C-829.81040251 299.58143248 -826.1484471 297.46355714 -822.52734375 294.84765625 C-812.15705743 287.60354772 -812.15705743 287.60354772 -806.67089844 288.29248047 C-801.32777607 289.95186948 -796.5755676 292.75885639 -791.73828125 295.52148438 C-786.97612413 298.09277749 -781.97063545 300.02786312 -776.9375 302 C-775.89045898 302.41515869 -774.84341797 302.83031738 -773.76464844 303.25805664 C-735.51168157 318.25449669 -695.89015592 327.21853486 -655 331 C-653.47354858 331.14465698 -653.47354858 331.14465698 -651.91625977 331.29223633 C-640.85110509 332.21728425 -629.78441877 332.19958547 -618.6875 332.1875 C-617.15274017 332.18659363 -617.15274017 332.18659363 -615.5869751 332.18566895 C-600.29810456 332.16115653 -585.19174355 331.8725713 -570 330 C-568.91799316 329.87109375 -567.83598633 329.7421875 -566.72119141 329.609375 C-500.90353566 321.5648914 -436.58830887 299.01685797 -382 261 C-381.46246094 260.62697754 -380.92492188 260.25395508 -380.37109375 259.86962891 C-357.96921731 244.27378952 -337.51291824 226.56785025 -318.1875 207.3125 C-317.29160156 206.42127441 -316.39570312 205.53004883 -315.47265625 204.61181641 C-310.44176776 199.56872613 -305.59805795 194.44041826 -301 189 C-300.46383057 188.37053467 -299.92766113 187.74106934 -299.37524414 187.0925293 C-269.81913823 152.17708154 -246.9664396 113.44317137 -227.375 72.19921875 C-227.01148438 71.43440186 -226.64796875 70.66958496 -226.2734375 69.8815918 C-224.97870458 67.11783416 -224.97870458 67.11783416 -224.28161621 64.57458496 C-222.0958273 57.78312608 -222.0958273 57.78312608 -219.1550293 55.6815033 C-216.76080087 54.71751751 -214.41433492 54.0555124 -211.90625 53.4453125 C-210.96628677 53.18129639 -210.02632355 52.91728027 -209.05787659 52.64526367 C-205.88148897 51.76467273 -202.69246202 50.94524045 -199.5 50.125 C-197.19759561 49.50181673 -194.89610523 48.87524843 -192.59545898 48.24560547 C-186.83669072 46.68092885 -181.06819556 45.15792235 -175.29420948 43.65078545 C-170.2599947 42.33489872 -165.2323367 40.99583688 -160.20751953 39.64453125 C-125.27186291 30.2510865 -90.25325526 21.20838939 -55.125 12.5625 C-54.40625324 12.38550819 -53.68750648 12.20851639 -52.94697952 12.02616119 C-39.04551285 8.6046353 -25.13599557 5.21923565 -11.1796875 2.02734375 C-10.26623566 1.81775528 -9.35278381 1.60816681 -8.41165161 1.39222717 C-7.58728607 1.20599289 -6.76292053 1.01975861 -5.91357422 0.82788086 C-5.20047089 0.6665416 -4.48736755 0.50520233 -3.75265503 0.338974 C-2 0 -2 0 0 0 Z " fill="#0C9DD7" transform="translate(1988,2441)"/>
<path d="M0 0 C9.10517365 0.01723634 18.14351722 0.53690085 27.21954346 1.20155334 C28.84099974 1.31719082 30.46247557 1.43255464 32.08396912 1.54766846 C36.44639607 1.85909221 40.808289 2.17745564 45.17005539 2.49798584 C47.90416256 2.69858211 50.63838992 2.8974642 53.37265015 3.09596252 C81.62609566 5.150778 109.85744686 7.431215 138.07891846 9.88514709 C138.93663345 9.9596471 139.79434845 10.03414711 140.67805481 10.11090469 C158.6765322 11.67567963 176.67257076 13.25519811 194.64141846 15.13514709 C194.05909018 20.15584016 192.4155367 24.34650912 190.30938721 28.88905334 C189.96595779 29.64536545 189.62252838 30.40167755 189.26869202 31.1809082 C188.52158688 32.82428616 187.77127387 34.46620871 187.01812744 36.10682678 C185.38386899 39.66723546 183.76528059 43.23469577 182.14584351 46.80186462 C181.28858734 48.69000496 180.43056143 50.57779598 179.57180786 52.46525574 C175.28721913 61.88939721 171.08427015 71.3491141 166.8911438 80.81422424 C160.43972985 95.37657681 153.95046082 109.92092697 147.39874268 124.43843079 C141.42034417 137.68648712 135.48099872 150.95024347 129.64141846 164.26014709 C129.34519592 164.93308807 129.04897339 165.60602905 128.74377441 166.29936218 C127.91507524 168.18346799 127.09009373 170.06915301 126.26641846 171.95545959 C125.80493408 173.01007385 125.34344971 174.06468811 124.86798096 175.15126038 C123.6123385 178.10291046 123.6123385 178.10291046 122.67315674 181.08534241 C121.50454259 184.53975034 120.04566223 187.81093115 118.50860596 191.11170959 C118.20018265 191.78137756 117.89175934 192.45104553 117.57398987 193.14100647 C116.90705573 194.58894238 116.23884509 196.03629086 115.56948853 197.48310852 C113.7459584 201.42610203 111.93320863 205.37403302 110.12188721 209.32264709 C109.74733902 210.13907684 109.37279083 210.95550659 108.9868927 211.79667664 C105.52606301 219.35683967 102.15510008 226.95536963 98.79870605 234.56233215 C92.33995987 249.19969078 85.68751627 263.73742055 78.92800903 278.23820496 C72.94513891 291.07880669 67.11740722 303.97840443 61.40264893 316.94032288 C56.78523754 327.4056915 52.03265698 337.7950615 47.14141846 348.13514709 C39.78418821 363.69923116 32.78879368 379.41291312 25.8381958 395.16200256 C21.82904898 404.24293164 17.79688813 413.3136676 13.76641846 422.38514709 C13.34671783 423.33012054 12.92701721 424.27509399 12.49459839 425.248703 C6.03738142 439.78514919 -0.46791509 454.29939039 -7.00360107 468.80070496 C-13.19426077 482.53664828 -19.33640687 496.29320616 -25.4418335 510.067276 C-28.95288245 517.9870056 -32.46735486 525.90521511 -35.98358154 533.82264709 C-36.41064392 534.78429779 -36.8377063 535.74594849 -37.27770996 536.73674011 C-44.16950408 552.25114053 -51.11551404 567.7405137 -58.09320068 583.21644592 C-63.0719035 594.26089881 -68.01562719 605.32016115 -72.92108154 616.39735413 C-73.36580811 617.40137268 -73.81053467 618.40539124 -74.26873779 619.43983459 C-74.65166992 620.30592346 -75.03460205 621.17201233 -75.42913818 622.06434631 C-76.04402615 623.43431735 -76.68702993 624.79204387 -77.35858154 626.13514709 C-146.65858154 626.13514709 -215.95858154 626.13514709 -287.35858154 626.13514709 C-281.74466872 612.66175632 -281.74466872 612.66175632 -278.93280029 606.57264709 C-278.30312767 605.20392899 -277.67349056 603.83519455 -277.04388428 602.46644592 C-276.71894989 601.76210419 -276.3940155 601.05776245 -276.05923462 600.33207703 C-270.02715384 587.25206066 -264.11333953 574.12445688 -258.29608154 560.94764709 C-252.99446617 548.94428216 -247.53901362 537.02745687 -241.92703247 525.16627502 C-236.99947678 514.7428289 -232.25972182 504.2471223 -227.60858154 493.69764709 C-221.45086834 479.7312616 -215.09470374 465.86688739 -208.64544678 452.03291321 C-202.66250571 439.19203047 -196.83468502 426.29214993 -191.11981201 413.32997131 C-186.20883867 402.19924415 -181.1294616 391.16142115 -175.9262085 380.16462708 C-170.99893291 369.74171769 -166.25982459 359.24640958 -161.60858154 348.69764709 C-155.80930206 335.54854845 -149.85914154 322.47722179 -143.79608154 309.44764709 C-143.39380341 308.58307892 -142.99152527 307.71851074 -142.57705688 306.82774353 C-142.17616852 305.96617645 -141.77528015 305.10460938 -141.36224365 304.2169342 C-135.79545653 292.25133879 -130.29446502 280.25813577 -124.84832764 268.23719788 C-124.24238694 266.89978813 -123.63642992 265.56238578 -123.03045654 264.22499084 C-122.73116241 263.56432617 -122.43186829 262.9036615 -122.12350464 262.22297668 C-119.90731307 257.33496267 -117.67534615 252.45432282 -115.43670654 247.57655334 C-108.71525926 232.92680255 -102.05951954 218.25368359 -95.54608154 203.51014709 C-88.98694653 188.66574609 -82.20842176 173.930007 -75.36199951 159.21620178 C-69.79515954 147.25091216 -64.29435955 135.25790298 -58.84832764 123.23719788 C-58.24238694 121.89978813 -57.63642992 120.56238578 -57.03045654 119.22499084 C-56.73116241 118.56432617 -56.43186829 117.9036615 -56.12350464 117.22297668 C-53.90731308 112.33496269 -51.67534848 107.45432175 -49.43670654 102.57655334 C-42.69584234 87.88464885 -36.01946087 73.16951366 -29.48358154 58.38514709 C-23.57414718 45.02084215 -17.53952508 31.71756974 -11.42108154 18.44764709 C-10.82206024 17.14579468 -10.82206024 17.14579468 -10.2109375 15.81764221 C-9.08700369 13.37667763 -7.95980342 10.93725429 -6.83123779 8.49842834 C-6.49349838 7.76487625 -6.15575897 7.03132416 -5.80778503 6.27554321 C-2.97238704 0.17031825 -2.97238704 0.17031825 0 0 Z " fill="#0C99D3" transform="translate(3631.3585815429688,2317.8648529052734)"/>
<path d="M0 0 C22.03473981 4.83794211 43.9369923 10.11876556 65.80105591 15.6743927 C68.36017193 16.32461248 70.91957715 16.9736852 73.47900391 17.62268066 C188.2214977 46.74049923 188.2214977 46.74049923 234 62 C235.2277258 64.18991488 236.26299596 66.30222764 237.265625 68.59375 C237.57550354 69.27896729 237.88538208 69.96418457 238.20465088 70.67016602 C239.22959004 72.94250091 240.23962136 75.22115814 241.25 77.5 C241.96704271 79.09617804 242.6851565 80.69187532 243.40429688 82.28710938 C244.88717437 85.57980968 246.36466959 88.87484322 247.83789062 92.171875 C250.72366996 98.62493193 253.65390246 105.05759819 256.58483887 111.49023438 C257.50863941 113.51897282 258.43086081 115.54842156 259.35253906 117.578125 C263.88515033 127.55966842 268.43896543 137.53141694 273 147.5 C278.49327295 159.50608037 283.96831138 171.52026235 289.42724609 183.54199219 C294.26839859 194.2022049 299.1287871 204.85349215 304 215.5 C309.49327295 227.50608037 314.96831138 239.52026235 320.42724609 251.54199219 C325.26839859 262.2022049 330.1287871 272.85349215 335 283.5 C340.49327295 295.50608037 345.96831138 307.52026235 351.42724609 319.54199219 C356.26839859 330.2022049 361.1287871 340.85349215 366 351.5 C371.49327295 363.50608037 376.96831138 375.52026235 382.42724609 387.54199219 C386.93406171 397.46599544 391.45631363 407.38281986 395.99084473 417.29418945 C416.86136876 462.91295918 416.86136876 462.91295918 426.9375 485.4375 C427.4521582 486.58154297 427.96681641 487.72558594 428.49707031 488.90429688 C428.96081055 489.94521484 429.42455078 490.98613281 429.90234375 492.05859375 C430.30960693 492.96923584 430.71687012 493.87987793 431.13647461 494.81811523 C432 497 432 497 432 499 C362.37 499 292.74 499 221 499 C215.06 485.47 209.12 471.94 203 458 C198.79563355 448.64342913 198.79563355 448.64342913 194.55273438 439.30493164 C187.9086693 424.75794223 181.40128546 410.15527932 175 395.5 C168.8913504 381.51638264 162.68234779 367.58264658 156.375 353.6875 C150.55919596 340.87381554 144.76891019 328.05032316 139.0625 315.1875 C138.58537064 314.11227081 138.58537064 314.11227081 138.09860229 313.01531982 C136.09638186 308.50235449 134.09611518 303.98852486 132.09631348 299.4744873 C121.13676921 274.73771837 110.14911489 250.01719249 98.9180603 225.40237427 C87.19232806 199.6957413 75.5921277 173.9337227 64.14779663 148.10064697 C61.51269406 142.15327433 58.87077152 136.20895396 56.2265625 130.265625 C51.57748363 119.81565509 46.93284454 109.36372118 42.29199219 98.91009521 C41.42428019 96.95565264 40.55643979 95.00126706 39.68847656 93.04693604 C37.09486876 87.20687242 34.50378215 81.36570172 31.91616821 75.52297974 C31.11287914 73.71003765 30.30885304 71.8974219 29.5039978 70.08517456 C25.41295447 60.87183007 21.40563545 51.63860029 17.60427856 42.30180359 C13.94800291 33.36040473 9.97128628 24.55922251 6.02416992 15.7434082 C5.0247013 13.50870492 4.02968022 11.27206345 3.03515625 9.03515625 C2.72900894 8.35510025 2.42286163 7.67504425 2.10743713 6.97438049 C0 2.22642814 0 2.22642814 0 0 Z " fill="#0C9BD5" transform="translate(4511,2445)"/>
<path d="M0 0 C21.98582665 10.41433894 21.98582665 10.41433894 30.14453125 14.48828125 C31.08648849 14.95759567 32.02844574 15.4269101 32.99894714 15.91044617 C34.95920165 16.88808279 36.9189472 17.86674063 38.87817383 18.84643555 C41.79748248 20.30499686 44.7199436 21.75710129 47.64257812 23.20898438 C59.2595877 29.00065627 70.71794135 35.02850812 82.08105469 41.30371094 C86.82906185 43.92182114 91.62519007 46.44010468 96.4375 48.9375 C106.36423714 54.13174434 116.10426181 59.63791786 125.83251953 65.19335938 C129.15446199 67.08810072 132.48124583 68.97414412 135.80859375 70.859375 C147.46623004 77.47321266 159.0675594 84.16900058 170.5625 91.0625 C171.55427246 91.65724121 172.54604492 92.25198242 173.56787109 92.86474609 C175.40182779 93.9707295 177.22687653 95.09171534 179.03971386 96.23198605 C181.93742322 98.03142922 181.93742322 98.03142922 184.90517902 99.35148716 C189.28587777 101.5705969 192.41329046 103.21034584 193.9929409 108.02879143 C194.35690612 111.89903428 194.36258572 115.68671585 194.2487793 119.56420898 C194.24540635 121.06690438 194.24688364 122.56961718 194.25279713 124.07230473 C194.2552733 128.08452275 194.19170043 132.09310675 194.11408234 136.1044693 C194.05126541 139.87318406 194.04848004 143.64103122 194.04064941 147.41027832 C193.98301074 158.41983067 193.82943617 169.42871173 193.6875 180.4375 C193.3471875 217.3459375 193.3471875 217.3459375 193 255 C129.31 255 65.62 255 0 255 C0 170.85 0 86.7 0 0 Z " fill="#0CA0D9" transform="translate(5222,2689)"/>
</svg>
