<svg width="442" height="412" viewBox="0 0 442 412" fill="none" xmlns="http://www.w3.org/2000/svg">
<path d="M411.411 333.181C433.599 295.521 444.12 252.128 441.646 208.488C439.171 164.849 423.811 122.923 397.509 88.0128C371.207 53.1026 335.143 26.776 293.878 12.3621C252.613 -2.05186 208.001 -3.90568 165.683 7.03502C123.365 17.9757 85.2409 41.2196 56.1329 73.8272C27.0249 106.435 8.23979 146.942 2.15317 190.226C-3.93344 233.509 2.95178 277.626 21.9381 316.997C40.9245 356.367 71.1593 389.224 108.819 411.411L129.238 376.753C98.433 358.604 73.7015 331.728 58.171 299.524C42.6405 267.319 37.0085 231.232 41.9873 195.827C46.966 160.422 62.3318 127.288 86.1417 100.615C109.952 73.9428 141.136 54.9298 175.752 45.9805C210.367 37.0312 246.859 38.5476 280.613 50.3379C314.367 62.1283 343.866 83.663 365.381 112.219C386.896 140.775 399.46 175.069 401.484 210.766C403.508 246.462 394.902 281.957 376.753 312.762L411.411 333.181Z" fill="black"/>
</svg>
