<svg width="13" height="15" viewBox="0 0 13 15" fill="none" xmlns="http://www.w3.org/2000/svg">
<path d="M6.50734 3.99477C5.61412 4.01357 4.87582 4.33448 4.29244 4.95749C3.69091 5.56171 3.38107 6.32638 3.36292 7.2515C3.38107 8.17663 3.69091 8.9413 4.29244 9.54551C4.87582 10.1685 5.61412 10.4894 6.50734 10.5082C7.40057 10.4894 8.13887 10.1685 8.72225 9.54551C9.32378 8.9413 9.63362 8.17663 9.65177 7.2515C9.63362 6.32638 9.32378 5.56171 8.72225 4.95749C8.13887 4.33448 7.40057 4.01357 6.50734 3.99477ZM6.50734 9.37633C5.92396 9.35753 5.44105 9.14942 5.05861 8.75198C4.67488 8.35588 4.47394 7.85572 4.45579 7.2515C4.47394 6.64729 4.67488 6.14713 5.05861 5.75103C5.44105 5.35359 5.92396 5.14547 6.50734 5.12667C7.09073 5.14547 7.57364 5.35359 7.95608 5.75103C8.33981 6.14713 8.54075 6.64729 8.5589 7.2515C8.54075 7.85572 8.33981 8.35588 7.95608 8.75198C7.57364 9.14942 7.09073 9.35753 6.50734 9.37633ZM10.5268 3.85379C10.4724 4.32508 10.2267 4.57952 9.78984 4.61712C9.33351 4.57952 9.08719 4.32508 9.05089 3.85379C9.05089 3.64567 9.12349 3.46575 9.26869 3.31402C9.39703 3.18244 9.57075 3.11665 9.78984 3.11665C9.98949 3.11665 10.1626 3.18244 10.309 3.31402C10.4361 3.46575 10.5087 3.64567 10.5268 3.85379ZM12.6056 4.61712V4.64531C12.6056 3.6074 12.2686 2.71988 11.5944 1.98273C10.8827 1.28453 10.0349 0.935423 9.05089 0.935423C8.6866 0.916625 8.16674 0.907227 7.49132 0.907227C6.83534 0.907227 6.17935 0.907227 5.52337 0.907227C4.84795 0.907227 4.33716 0.916625 3.99102 0.935423C3.00705 0.935423 2.15013 1.28453 1.42026 1.98273C0.746125 2.71988 0.418135 3.59801 0.436285 4.61712C0.399986 4.99442 0.381836 5.53284 0.381836 6.23239C0.381836 6.9118 0.381836 7.59121 0.381836 8.27062C0.381836 8.95137 0.399986 9.48039 0.436285 9.85769C0.418135 10.8956 0.746125 11.7831 1.42026 12.5203C2.13198 13.2185 2.9889 13.5582 3.99102 13.5394C4.33716 13.5582 4.84795 13.577 5.52337 13.5958C6.17935 13.5958 6.83534 13.5958 7.49132 13.5958C8.16674 13.577 8.6866 13.5582 9.05089 13.5394C10.0349 13.5582 10.8827 13.2185 11.5944 12.5203C12.2686 11.7831 12.6056 10.8956 12.6056 9.85769C12.6238 9.48039 12.6329 8.95137 12.6329 8.27062C12.6329 7.59121 12.6329 6.9118 12.6329 6.23239C12.6329 5.53284 12.6238 4.99442 12.6056 4.61712ZM11.293 10.9896C11.0558 11.5562 10.6636 11.9624 10.1165 12.2081C9.75224 12.3397 9.26026 12.4149 8.64058 12.4337C8.0209 12.4538 7.45566 12.4639 6.94488 12.4639C6.78024 12.4639 6.63439 12.4639 6.50734 12.4639C6.3803 12.4639 6.23445 12.4639 6.06981 12.4639C5.55903 12.4639 4.99379 12.4538 4.37411 12.4337C3.77258 12.4149 3.2806 12.3397 2.89816 12.2081C2.35107 11.9624 1.95891 11.5562 1.72167 10.9896C1.59462 10.5935 1.52202 10.0839 1.50387 9.46092C1.48572 8.81911 1.47665 8.23369 1.47665 7.70467C1.47665 7.53414 1.47665 7.38309 1.47665 7.2515C1.47665 7.11992 1.47665 6.96886 1.47665 6.79834C1.47665 6.26932 1.48572 5.6839 1.50387 5.04208C1.52202 4.40027 1.59462 3.89072 1.72167 3.51342C1.95891 2.94679 2.35107 2.54063 2.89816 2.29491C3.2806 2.16333 3.77258 2.08813 4.37411 2.06934C4.99379 2.0304 5.55903 2.021 6.06981 2.04114C6.23445 2.04114 6.3803 2.04114 6.50734 2.04114C6.63439 2.04114 6.78024 2.04114 6.94488 2.04114C7.45566 2.04114 8.0209 2.05054 8.64058 2.06934C9.26026 2.08813 9.75224 2.16333 10.1165 2.29491C10.6636 2.54063 11.0558 2.94679 11.293 3.51342C11.4201 3.89072 11.4927 4.40027 11.5108 5.04208C11.5484 5.6839 11.5581 6.26932 11.54 6.79834C11.54 6.96886 11.54 7.11992 11.54 7.2515C11.54 7.38309 11.54 7.53414 11.54 7.70467C11.5581 8.23369 11.5484 8.81911 11.5108 9.46092C11.4927 10.1027 11.4201 10.6123 11.293 10.9896Z" fill="#060606"/>
</svg>
