<svg width="45" height="45" viewBox="0 0 45 45" fill="none" xmlns="http://www.w3.org/2000/svg">
<path d="M0.500042 22.5019C0.500042 10.3506 10.3506 0.500042 22.5019 0.500042C34.6531 0.500042 44.5037 10.3506 44.5037 22.5019C44.5037 34.6531 34.6531 44.5037 22.5019 44.5037C10.3506 44.5037 0.500042 34.6531 0.500042 22.5019Z" stroke="white" stroke-opacity="0.6" stroke-width="1.00008"/>
<g clip-path="url(#clip0_281_9)">
<path d="M23.5389 30.0002H20.0309V18.6678H23.3838V20.1937C23.4309 20.1676 23.453 20.1626 23.4614 20.1493C24.2011 18.9561 25.3076 18.4305 26.6752 18.3873C27.4565 18.3634 28.2206 18.4588 28.9382 18.797C29.8663 19.2345 30.386 20.0024 30.6731 20.9593C30.9025 21.7217 30.9817 22.5063 30.9867 23.2952C31.0016 25.4814 30.9961 27.6676 30.9978 29.8538C30.9978 29.8871 30.9933 29.9204 30.99 29.9647H27.472V29.7296C27.472 27.8756 27.477 26.0215 27.4648 24.1674C27.4645 23.7458 27.4274 23.325 27.354 22.9099C27.1401 21.7494 26.3848 21.3574 25.3038 21.4828C24.3191 21.5992 23.7778 22.1753 23.6243 23.2409C23.5696 23.6311 23.542 24.0246 23.5417 24.4186C23.5328 26.19 23.5378 27.9609 23.5378 29.7319L23.5389 30.0002Z" fill="white"/>
<path d="M14.2915 18.665H17.7957V29.9925H14.2915V18.665Z" fill="white"/>
<path d="M18.0777 15.0349C18.0838 16.1621 17.17 17.0963 16.0552 17.103C14.9403 17.1096 14 16.1737 14 15.0426C14.0033 14.5044 14.2174 13.9889 14.5965 13.607C14.9755 13.2251 15.4891 13.0071 16.0269 13C16.2952 12.9987 16.561 13.0503 16.8093 13.1519C17.0576 13.2535 17.2834 13.4031 17.4739 13.592C17.6643 13.781 17.8157 14.0057 17.9193 14.2533C18.0229 14.5009 18.0767 14.7665 18.0777 15.0349Z" fill="white"/>
</g>
<defs>
<clipPath id="clip0_281_9">
<rect width="17" height="17" fill="white" transform="translate(14 13)"/>
</clipPath>
</defs>
</svg>
