<svg width="29" height="29" viewBox="0 0 29 29" fill="none" xmlns="http://www.w3.org/2000/svg">
<g clip-path="url(#clip0_344_411)">
<path d="M16.2724 28.9999H10.2881V9.66809H16.0077V12.271C16.0881 12.2266 16.1259 12.218 16.1401 12.1953C17.402 10.1599 19.2896 9.26327 21.6225 9.1895C22.9553 9.14883 24.2588 9.31151 25.4828 9.88847C27.0661 10.6347 27.9528 11.9447 28.4424 13.5772C28.8337 14.8777 28.9689 16.216 28.9774 17.562C29.0029 21.2914 28.9935 25.0207 28.9963 28.7501C28.9963 28.8069 28.9887 28.8636 28.9831 28.9393H22.9817V28.5383C22.9817 25.3754 22.9902 22.2126 22.9694 19.0497C22.969 18.3306 22.9057 17.6128 22.7804 16.9046C22.4155 14.925 21.1272 14.2563 19.283 14.4701C17.6033 14.6687 16.6798 15.6514 16.418 17.4693C16.3248 18.1349 16.2777 18.8061 16.2771 19.4782C16.262 22.5001 16.2705 25.5211 16.2705 28.5421L16.2724 28.9999Z" fill="white"/>
<path d="M0.49707 9.66357H6.47478V28.9868H0.49707V9.66357Z" fill="white"/>
<path d="M6.95603 3.47075C6.96643 5.39361 5.40772 6.98732 3.5059 6.99867C1.60407 7.01002 0 5.41348 0 3.48399C0.00561328 2.56584 0.370937 1.68652 1.01748 1.03499C1.66401 0.383449 2.54017 0.0116728 3.45769 -0.000446572C3.91527 -0.00268712 4.36879 0.0853621 4.79233 0.258651C5.21587 0.431941 5.60111 0.687079 5.92602 1.00947C6.25093 1.33186 6.50914 1.71518 6.68588 2.13751C6.86262 2.55984 6.95442 3.01289 6.95603 3.47075Z" fill="white"/>
</g>
<defs>
<clipPath id="clip0_344_411">
<rect width="29" height="29" fill="white"/>
</clipPath>
</defs>
</svg>
