<svg width="41" height="27" viewBox="0 0 41 27" fill="none" xmlns="http://www.w3.org/2000/svg">
<path d="M41 24.003C40.7653 24.5393 40.6139 25.13 40.2789 25.5996C39.618 26.5388 38.602 26.9493 37.4156 27C37.3354 27 37.2561 27 37.1759 27C26.0616 27 14.948 27 3.83513 27C2.57246 27 1.5184 26.5961 0.735126 25.6438C0.246055 25.0421 -0.0118952 24.3035 0.00300873 23.5475C-0.00100291 16.8509 -0.00100291 10.154 0.00300873 3.45677C0.00300873 1.42995 1.59062 0.00610488 3.789 0.00422645C8.39236 -0.00140882 12.9954 -0.00140882 17.5981 0.00422645H37.1699C38.7354 0.00422645 39.9249 0.611899 40.6309 1.9437C40.8054 2.27243 40.8776 2.64905 40.997 3.00408L41 24.003ZM4.16107 2.27243C4.22827 2.35226 4.24933 2.38419 4.27741 2.41049C8.81859 6.6407 13.3628 10.8672 17.91 15.0898C18.2994 15.4476 18.7638 15.7259 19.2739 15.907C20.7653 16.4235 22.0751 16.0544 23.1853 15.0194C27.661 10.8531 32.1356 6.68484 36.6093 2.51474C36.6795 2.44993 36.7436 2.37949 36.8489 2.27149L4.16107 2.27243ZM14.466 15.0373L4.31251 24.7262H36.6674C33.3538 21.5172 29.9934 18.2634 26.5862 14.9649C26.1088 15.4345 25.7888 15.7717 25.4469 16.0863C25.0286 16.4714 24.6235 16.8772 24.1601 17.2134C21.697 18.9763 18.4596 18.7565 16.186 16.6846C15.6264 16.1728 15.0888 15.6318 14.466 15.0363V15.0373ZM12.5223 13.5693L2.43406 3.97052V23.1943C5.8911 19.8958 9.2709 16.6715 12.5223 13.5683V13.5693ZM38.583 3.9508L38.4957 3.89727L28.3041 13.5927L38.583 23.1586V3.9508Z" fill="white"/>
</svg>
