<svg width="13" height="15" viewBox="0 0 13 15" fill="none" xmlns="http://www.w3.org/2000/svg">
<path d="M12.6369 3.48529V5.94848C11.3975 5.94848 10.2761 5.58058 9.27269 4.84478V9.88596C9.27269 10.8675 9.00887 11.7456 8.48123 12.5203C7.97045 13.2937 7.27752 13.8597 6.40245 14.2182C5.50922 14.5391 4.62508 14.5868 3.75 14.3612C2.87493 14.1343 2.11848 13.6529 1.48065 12.9171C0.877821 12.18 0.521958 11.3394 0.41306 10.3955C0.322312 9.4704 0.495382 8.57347 0.93227 7.70474C1.3886 6.85481 2.01801 6.213 2.82048 5.7793C3.63981 5.36307 4.51488 5.21201 5.4457 5.32614V7.87392C5.00752 7.74234 4.58813 7.75174 4.18754 7.90212C3.78566 8.03505 3.44794 8.29016 3.1744 8.66746C2.92031 9.04476 2.79326 9.46033 2.79326 9.91416C2.79326 10.3479 2.92031 10.7634 3.1744 11.1609C3.44794 11.5194 3.79473 11.7644 4.21476 11.896C4.61535 12.0477 5.03474 12.0477 5.47292 11.896C5.89166 11.7456 6.22873 11.4912 6.48412 11.1327C6.73951 10.7728 6.86721 10.3573 6.86721 9.88596V0.000976562H9.27269C9.27269 0.209096 9.29083 0.416543 9.32713 0.62332C9.52808 1.58738 10.0207 2.34265 10.805 2.88913C11.3703 3.26778 11.9809 3.4665 12.6369 3.48529Z" fill="#060606"/>
</svg>
